# AST/ASF file generated using VICON BodyLanguage
# -----------------------------------------------
:version 1.10
:name VICON
:units
  mass 1.0
  length 0.45
  angle deg
:documentation
   .ast/.asf automatically generated from VICON data using
   VICON BodyBuilder and BodyLanguage model FoxedUp or BRILLIANT.MOD
:root
   order TX TY TZ RX RY RZ
   axis XYZ
   position 0 0 0  
   orientation 0 0 0 
:bonedata
  begin
     id 1 
     name lhipjoint
     direction 0.604623 -0.733026 0.311616 
     length 2.56391 
     axis 0 0 0  XYZ
  end
  begin
     id 2 
     name lfemur
     direction 0.34202 -0.939693 0  
     length 7.75596  
     axis 0 0 20  XYZ
    dof rx ry rz
    limits (-160.0 20.0)
           (-70.0 70.0)
           (-60.0 70.0)
  end
  begin
     id 3 
     name ltibia
     direction 0.34202 -0.939693 0   
     length 7.63697   
     axis 0 0 20   XYZ
    dof rx
    limits (-10.0 170.0)
  end
  begin
     id 4 
     name lfoot
     direction 0.048038 -0.131983 0.990087   
     length 1.94388   
     axis -90 7.62852e-016 20   XYZ
    dof rx rz
    limits (-45.0 90.0)
           (-70.0 20.0)
  end
  begin
     id 5 
     name ltoes
     direction 1.53565e-011 -4.21929e-011 1   
     length 0.984801   
     axis -90 7.62852e-016 20   XYZ
    dof rx
    limits (-90.0 20.0)
  end
  begin
     id 6 
     name rhipjoint
     direction -0.609162 -0.729836 0.31026   
     length 2.57511  
     axis 0 0 0  XYZ 
  end
  begin
     id 7 
     name rfemur
     direction -0.34202 -0.939693 0   
     length 7.60772   
     axis 0 0 -20   XYZ
    dof rx ry rz
    limits (-160.0 20.0)
           (-70.0 70.0)
           (-70.0 60.0)
  end
  begin
     id 8 
     name rtibia
     direction -0.34202 -0.939693 0   
     length 7.68497   
     axis 0 0 -20   XYZ
    dof rx
    limits (-10.0 170.0)
 end
 begin
     id 9 
     name rfoot
     direction -0.0969806 -0.266452 0.958957   
     length 2.01398  
     axis -90 -7.62852e-016 -20   XYZ
    dof rx rz
    limits (-45.0 90.0)
           (-20.0 70.0)
  end
  begin
     id 10 
     name rtoes
     direction -1.53552e-011 -4.21869e-011 1   
     length 1.00896   
     axis -90 -7.62852e-016 -20   XYZ
    dof rx
    limits (-90.0 20.0)
  end
  begin
     id 11 
     name lowerback
     direction 0.0305179 0.993923 -0.10576   
     length 2.09077   
     axis 0 0 0   XYZ
    dof rx ry rz
    limits (-20.0 45.0)
           (-30.0 30.0)
           (-30.0 30.0)
  end
  begin
     id 12 
     name upperback
     direction -0.0137909 0.999867 0.00873764   
     length 2.08918   
     axis 0 0 0   XYZ
    dof rx ry rz
    limits (-20.0 45.0)
           (-30.0 30.0)
           (-30.0 30.0)
  end
  begin
     id 13 
     name thorax
     direction -0.0278536 0.997917 0.0581839   
     length 2.11939   
     axis 0 0 0   XYZ
    dof rx ry rz
    limits (-20.0 45.0)
           (-30.0 30.0)
           (-30.0 30.0)
  end
  begin
     id 14 
     name lowerneck
     direction 0.0138689 0.999837 -0.0116016   
     length 1.74353   
     axis 0 0 0   XYZ
    dof rx ry rz
    limits (-20.0 45.0)
           (-30.0 30.0)
           (-30.0 30.0)
  end
  begin
     id 15 
     name upperneck
     direction -0.00992078 0.999667 0.0238149   
     length 1.71734   
     axis 0 0 0   XYZ
    dof rx ry rz
    limits (-20.0 45.0)
           (-30.0 30.0)
           (-30.0 30.0)
  end
  begin
     id 16
     name head
     direction -0.00530555 0.999941 0.00944937  
     length 1.78249  
     axis 0 0 0   XYZ
    dof rx ry rz
    limits (-20.0 45.0)
           (-30.0 30.0)
           (-30.0 30.0)
  end
  begin
     id 17 
     name lclavicle
     direction 0.929165 0.366864 0.0454227  
     length 3.65686  
     axis 0 0 0   XYZ
    dof ry rz
    limits (-20.0 10.0)
           (0.0 20.0)
  end
  begin
     id 18 
     name lhumerus
     direction 1 -4.4897e-011 3.05413e-018   
     length 5.15218   
     axis -180 -30 -90   XYZ
    dof rx ry rz
    limits (-60.0 90.0)
           (-90.0 90.0)
           (-90.0 90.0)
  end
  begin
     id 19
     name lradius
     direction 1 -4.48963e-011 5.40022e-027   
     length 3.49459   
     axis -180 -30 -90   XYZ
    dof rx
    limits (-10.0 170.0)
  end
  begin
     id 20
     name lwrist
     direction 1 -4.48966e-011 9.79369e-027   
     length 1.7473   
     axis -4.67603e-015 90 90   XYZ
    dof ry
    limits (-180.0 0.0)
 end
  begin
     id 21 
     name lhand
     direction 1 -4.48996e-011 1.9593e-026   
     length 0.512466   
     axis -1.24987e-014 90 90   XYZ
    dof rx rz
    limits (-90.0 90.0)
           (-45.0 45.0)
  end
  begin
     id 22 
     name lfingers
     direction 1 -4.48931e-011 3.91616e-026   
     length 0.413163   
     axis -2.49979e-014 90 90   XYZ
    dof rx
    limits (0.0 90.0)
  end
  begin
     id 23
     name lthumb
     direction 0.707107 -6.34959e-011 0.707107   
     length 0.593222   
     axis -90 45 5.69224e-014   XYZ
    dof rx rz
    limits (-45.0 45.0)
           (-45.0 45.0)
  end
  begin
     id 24 
     name rclavicle
     direction -0.951469 0.307727 0.00346571   
     length 3.42864  
     axis 0 0 0   XYZ 
    dof ry rz
    limits (-10.0 20.0)
           (-20.0 0.0)
  end
  begin
     id 25 
     name rhumerus
     direction -1 -4.48967e-011 2.58643e-027  
     length 5.44344   
     axis -180 30 90   XYZ
    dof rx ry rz
    limits (-90.0 60.0)
           (-90.0 90.0)
           (-90.0 90.0)
  end
  begin
     id 26 
     name rradius
     direction -1 -4.48973e-011 4.26485e-028   
     length 3.58403   
     axis -180 30 90   XYZ
    dof rx
    limits (-10.0 170.0)
  end
  begin
     id 27 
     name rwrist
     direction -1 -4.48962e-011 9.79331e-027   
     length 1.79202   
     axis -4.67603e-015 -90 -90   XYZ
    dof ry
    limits (-180.0 0.0)
  end
  begin
     id 28
     name rhand
     direction -1 -4.48975e-011 1.95891e-026   
     length 0.34249   
     axis -1.24987e-014 -90 -90   XYZ
    dof rx rz
    limits (-90.0 90.0)
           (-45.0 45.0)
  end
  begin
     id 29
     name rfingers
     direction -1 -4.48893e-011 3.9147e-026   
     length 0.276124   
     axis -2.49979e-014 -90 -90   XYZ
    dof rx
    limits (0.0 90.0)
  end
  begin
     id 30
     name rthumb
     direction -0.707107 -6.34898e-011 0.707107   
     length 0.39646   
     axis -90 -45 -5.69224e-014   XYZ
    dof rx rz
    limits (-45.0 45.0)
           (-45.0 45.0)
  end
:hierarchy
  begin
    root lhipjoint rhipjoint lowerback
    lhipjoint lfemur
    lfemur ltibia
    ltibia lfoot
    lfoot ltoes
    rhipjoint rfemur
    rfemur rtibia
    rtibia rfoot
    rfoot rtoes
    lowerback upperback
    upperback thorax
    thorax lowerneck lclavicle rclavicle
    lowerneck upperneck
    upperneck head
    lclavicle lhumerus
    lhumerus lradius
    lradius lwrist
    lwrist lhand lthumb
    lhand lfingers
    rclavicle rhumerus
    rhumerus rradius
    rradius rwrist
    rwrist rhand rthumb
    rhand rfingers
  end

#!OML:ASF H:\charlestonDancing\Project 1\Capture day 1\Session 1\femaleDancer.ASF
:FULLY-SPECIFIED
:DEGREES
1
root -15.8043 16.388 -1.63489 -0.443455 76.2724 -6.0264
lowerback 21.1167 -3.77435 -2.73274
upperback 3.73442 -5.55946 -2.8397
thorax -7.72094 -2.53503 -0.0303573
lowerneck 1.38336 6.71286 7.34806
upperneck -4.15439 9.04787 -3.89232
head -1.01397 4.49448 -2.56755
rclavicle 1.51076e-014 -2.38542e-014
rhumerus -37.4313 19.1071 -95.8753
rradius 40.1531
rwrist 18.4489
rhand -16.3086 -31.7356
rfingers 7.12502
rthumb 9.90241 -61.4827
lclavicle 1.51076e-014 -2.38542e-014
lhumerus 21.0277 -2.49168 67.2796
lradius 69.444
lwrist 24.3504
lhand -19.1976 32.6282
lfingers 7.12502
lthumb 7.11444 62.4887
rfemur -38.3034 8.71698 22.3583
rtibia 61.5069
rfoot -26.045 -3.19903
rtoes -20.3477
lfemur -36.4966 9.74124 -21.7104
ltibia 63.4378
lfoot -26.0657 -7.42211
ltoes -14.567
2
root -15.8228 16.3811 -1.62641 -0.0758604 76.3737 -5.67807
lowerback 21.2638 -3.75936 -2.83929
upperback 3.78233 -5.56586 -2.89283
thorax -7.74162 -2.53269 -0.0192319
lowerneck 1.36964 6.70056 7.31622
upperneck -4.35598 9.03296 -3.84039
head -1.08089 4.48463 -2.55095
rclavicle -1.27222e-014 -1.27222e-014
rhumerus -37.3968 19.3682 -96.078
rradius 40.7074
rwrist 18.2062
rhand -16.5166 -31.9601
rfingers 7.12502
rthumb 9.70175 -61.7166
lclavicle -1.27222e-014 -1.27222e-014
lhumerus 21.2924 -2.47798 67.3315
lradius 69.5746
lwrist 24.2274
lhand -19.0579 32.6959
lfingers 7.12502
lthumb 7.24926 62.5517
rfemur -38.5231 8.73605 22.2848
rtibia 61.7146
rfoot -25.9711 -3.24995
rtoes -19.9926
lfemur -36.6603 9.72127 -21.7841
ltibia 63.551
lfoot -26.0514 -7.49652
ltoes -14.4486
3
root -15.8481 16.3654 -1.61702 -0.16798 76.3258 -5.85243
lowerback 21.3869 -3.69795 -2.84633
upperback 3.85169 -5.48731 -2.94189
thorax -7.73605 -2.49295 -0.0846147
lowerneck 1.17931 6.67699 7.37144
upperneck -4.46651 8.99166 -3.82902
head -1.08385 4.46136 -2.55164
rclavicle -5.24792e-014 -2.54444e-014
rhumerus -37.263 19.5772 -96.2756
rradius 41.2192
rwrist 18.0751
rhand -16.9848 -31.8276
rfingers 7.12502
rthumb 9.25006 -61.6047
lclavicle -5.24792e-014 -2.54444e-014
lhumerus 21.7002 -2.50341 67.3038
lradius 69.6785
lwrist 24.1639
lhand -18.9397 32.8979
lfingers 7.12502
lthumb 7.36338 62.7497
rfemur -38.888 8.90237 22.35
rtibia 62.0128
rfoot -25.8642 -3.24289
rtoes -19.4898
lfemur -36.9858 9.86027 -21.7133
ltibia 63.8038
lfoot -25.9666 -7.69087
ltoes -13.9131
4
root -15.8761 16.3457 -1.60458 -0.285093 76.2773 -6.03265
lowerback 21.5618 -3.6297 -2.88453
upperback 3.92732 -5.40772 -2.99221
thorax -7.74795 -2.45092 -0.131673
lowerneck 0.995094 6.65545 7.36916
upperneck -4.60463 8.95547 -3.74007
head -1.1025 4.44005 -2.51818
rclavicle 5.24792e-014 4.45278e-014
rhumerus -37.1672 19.7423 -96.4867
rradius 41.7892
rwrist 17.9576
rhand -17.4915 -31.9874
rfingers 7.12502
rthumb 8.76103 -61.7856
lclavicle 5.24792e-014 4.45278e-014
lhumerus 22.128 -2.56604 67.2527
lradius 69.7914
lwrist 24.2349
lhand -19.0093 33.0509
lfingers 7.12502
lthumb 7.29618 62.9051
rfemur -39.2598 9.08715 22.4301
rtibia 62.3447
rfoot -25.7568 -3.22319
rtoes -19.0351
lfemur -37.319 10.0168 -21.6249
ltibia 64.0537
lfoot -25.809 -7.98899
ltoes -12.8433
5
root -15.9031 16.3274 -1.58915 -0.135724 76.4348 -5.7587
lowerback 21.9233 -3.63178 -3.04788
upperback 4.06859 -5.44714 -3.05341
thorax -7.77392 -2.45929 -0.079679
lowerneck 0.838638 6.6439 7.3172
upperneck -4.82808 8.93484 -3.64117
head -1.15497 4.42641 -2.47684
rclavicle 6.12257e-014 2.8625e-014
rhumerus -37.0078 19.9815 -96.698
rradius 42.2909
rwrist 17.7844
rhand -17.8311 -32.1861
rfingers 7.12502
rthumb 8.43331 -61.9977
lclavicle 6.12257e-014 2.8625e-014
lhumerus 22.5017 -2.50801 67.2336
lradius 69.9343
lwrist 24.2017
lhand -18.9757 33.0585
lfingers 7.12502
lthumb 7.32862 62.9116
rfemur -39.4292 9.0439 22.4412
rtibia 62.7323
rfoot -25.7114 -3.19786
rtoes -18.6031
lfemur -37.4369 9.98847 -21.6211
ltibia 64.3292
lfoot -25.7366 -8.20367
ltoes -12.216
6
root -15.9322 16.3049 -1.57191 0.248581 76.6793 -5.17417
lowerback 22.3406 -3.66046 -3.28835
upperback 4.26161 -5.53615 -3.1281
thorax -7.7643 -2.48862 0.0160728
lowerneck 0.629683 6.63668 7.26754
upperneck -5.07295 8.91578 -3.5789
head -1.20333 4.41391 -2.44613
rclavicle -4.69132e-014 -2.70347e-014
rhumerus -36.7702 20.2927 -96.8974
rradius 42.7089
rwrist 17.6476
rhand -18.1941 -32.0918
rfingers 7.12502
rthumb 8.08302 -61.9172
lclavicle -4.69132e-014 -2.70347e-014
lhumerus 22.8605 -2.39955 67.1953
lradius 70.1074
lwrist 24.1654
lhand -18.938 32.9022
lfingers 7.12502
lthumb 7.36504 62.7541
rfemur -39.5509 8.88422 22.4164
rtibia 63.1856
rfoot -25.5537 -3.31994
rtoes -18.9535
lfemur -37.501 9.86897 -21.678
ltibia 64.6601
lfoot -25.726 -8.34235
ltoes -12.1119
7
root -15.9675 16.273 -1.55396 0.21643 76.8226 -5.0281
lowerback 22.8215 -3.65938 -3.43345
upperback 4.41191 -5.5715 -3.1793
thorax -7.84104 -2.4928 0.0743948
lowerneck 0.571489 6.63211 7.14685
upperneck -5.43568 8.91354 -3.46196
head -1.32039 4.40938 -2.39636
rclavicle 3.18055e-015 -1.74931e-014
rhumerus -36.6522 20.6983 -97.1318
rradius 43.1999
rwrist 17.4968
rhand -18.4862 -32.1641
rfingers 7.12502
rthumb 7.80106 -62.0001
lclavicle 3.18055e-015 -1.74931e-014
lhumerus 23.1791 -2.35061 67.1355
lradius 70.298
lwrist 24.1801
lhand -18.8909 32.7898
lfingers 7.12502
lthumb 7.41048 62.64
rfemur -39.742 8.79658 22.5347
rtibia 63.6911
rfoot -25.3095 -3.62765
rtoes -20.4846
lfemur -37.6744 9.86443 -21.6172
ltibia 65.0881
lfoot -25.6837 -8.49202
ltoes -12.2396
